<svg width="512" height="512" viewBox="0 0 512 512" fill="none" xmlns="http://www.w3.org/2000/svg">
    <path d="M417.893 52.7664L66.554 146.966L160.754 498.305L512.093 404.105L417.893 52.7664Z" fill="#CCCCCC"/>
    <path d="M417.893 52.7664L512.093 404.105L160.754 498.305L66.554 146.966L417.893 52.7664ZM181.964 461.555L475.343 382.896L396.683 89.5165L103.304 168.176L181.964 461.555Z" fill="black"/>
    <path d="M351.339 14.3334L-0.000244141 108.533L94.1994 459.872L445.538 365.672L351.339 14.3334Z" fill="white"/>
    <path d="M351.339 14.3334L445.538 365.672L94.1994 459.872L-0.000244141 108.533L351.339 14.3334ZM115.41 423.122L408.789 344.463L330.129 51.0835L36.75 129.743L115.41 423.122Z" fill="black"/>
    <path d="M139.67 180.78L166.073 173.701L267.805 264.155L238.357 154.321L264.759 147.242L306.536 303.057L280.133 310.136L178.403 219.689L207.849 329.517L181.447 336.596L139.67 180.78Z" fill="black"/>
</svg>
